<svg xmlns="http://www.w3.org/2000/svg" viewBox="0 0 315.17 347.61"><defs><style>.cls-1{fill:#c6c6c6;stroke:#c6c6c6;}.cls-1,.cls-2,.cls-3,.cls-4,.cls-5{stroke-miterlimit:10;}.cls-2{fill:#706f6f;stroke:#706f6f;}.cls-3{fill:#575756;stroke:#575756;}.cls-4{fill:#9d9d9c;stroke:#9d9d9c;}.cls-5{fill:#ededed;stroke:#ededed;}</style></defs><g id="Слой_2" data-name="Слой 2"><g id="Слой_1-2" data-name="Слой 1"><rect class="cls-1" x="201.97" y="272.99" width="86.61" height="47.48" transform="translate(490.55 593.46) rotate(-180)"/><rect class="cls-2" x="191.54" y="262.56" width="86.61" height="47.48" transform="translate(469.68 572.59) rotate(-180)"/><polygon class="cls-3" points="314.14 330.91 298.49 326.21 281.8 342.91 257.28 330.91 222.84 342.91 201.97 329.34 167.54 342.91 144.06 342.91 136.23 310.04 96.06 272.99 70.49 231.78 100.75 212.47 86.67 172.3 103.88 135.78 88.23 102.91 103.36 70.56 87.71 40.3 101.28 18.91 86.67 8.99 102.84 49.17 95.02 175.95 83.54 242.21 111.71 294.38 152.93 318.38 175.36 347.08 252.58 337.69 303.71 339.78 314.14 330.91"/><path class="cls-4" d="M302.67,323.08l7.82-16.17-13-31.31-11-29.22-48,5.74L217.1,234.38,190,257.86,145.1,260l-19.82-25.57L107,261.51,67.36,268.3,41.28,246.38l-23.48-24S28.23,201,30.32,201s-16.17-32.34-18.26-32.87S.58,123.78.58,123.78l32.87-12L20.41,68l11-36.52L16.75,1.69,11,43.43,31.88,73.69,14.15,141,17.8,191.6l20.87,37.57,3.65,36,50.61,6.26,1.56-27.65,52.7,7.3,29.74,14.09,51.13-24.52,33.39,13.56,40.7,14.61Z"/><polygon class="cls-5" points="170.15 270.91 159.97 309.01 121.62 327.25 64.75 320.47 81.45 277.17 60.06 229.69 73.62 199.95 53.28 159.78 68.41 129.51 58.49 91.95 70.49 67.43 59.02 39.25 79.36 42.91 55.88 71.6 75.71 104.99 50.67 102.91 70.49 144.12 57.45 183.25 65.28 251.6 70.49 277.17 86.14 300.12 86.67 327.25 119.02 334.04 142.49 296.73 182.15 283.43 170.15 270.91"/></g></g></svg>