<svg xmlns="http://www.w3.org/2000/svg" viewBox="0 0 584.08 682.38"><defs><style>.cls-1{fill:#c5c5c5;stroke:#c5c5c5;}.cls-1,.cls-2,.cls-3,.cls-4,.cls-5{stroke-miterlimit:10;}.cls-2{fill:#6f6f6e;stroke:#6f6f6e;}.cls-3{fill:#585757;stroke:#585757;}.cls-4{fill:#9b9b9b;stroke:#9b9b9b;}.cls-5{fill:#ececec;stroke:#ececec;}</style></defs><g id="Слой_2" data-name="Слой 2"><g id="Слой_1-2" data-name="Слой 1"><rect class="cls-1" x="414.27" y="15.49" width="48.7" height="26.69"/><rect class="cls-2" x="420.13" y="21.36" width="48.7" height="26.69"/><polygon class="cls-3" points="399.89 9.62 408.69 12.26 418.08 2.88 431.87 9.62 451.23 2.88 462.96 10.5 482.32 2.88 495.52 2.88 499.92 21.36 522.51 42.19 536.88 65.36 519.87 76.21 527.79 98.8 518.11 119.33 526.91 137.81 518.4 156 527.2 173.02 519.58 185.04 527.79 190.62 518.7 168.03 523.1 96.75 529.55 59.49 513.71 30.16 490.54 16.66 477.92 0.53 434.51 5.81 405.76 4.64 399.89 9.62"/><path class="cls-4" d="M406.35,14l-4.4,9.1,7.33,17.6,6.16,16.43,27-3.23,12,10,15.26-13.2,25.23-1.17,11.14,14.37,10.27-15.25,22.29-3.81,14.67,12.32,13.2,13.49s-5.87,12-7,12,9.09,18.18,10.27,18.48,6.45,24.93,6.45,24.93l-18.48,6.75L565,157.47,558.88,178l8.22,16.72,3.22-23.46-11.73-17,10-37.84-2-28.45L554.78,66.83l-2.06-20.24-28.45-3.52-.88,15.54-29.63-4.1L477,46.59,448.29,60.37l-18.77-7.62-22.88-8.22Z"/><polygon class="cls-5" points="480.86 43.36 486.58 21.93 508.14 11.68 540.11 15.49 530.72 39.84 542.75 66.53 535.12 83.25 546.56 105.84 538.06 122.86 543.63 143.97 536.88 157.76 543.34 173.6 531.9 171.55 545.1 155.42 533.95 136.64 548.03 137.81 536.88 114.64 544.22 92.64 539.82 54.21 536.88 39.84 528.08 26.93 527.79 11.68 509.6 7.86 496.4 28.84 474.11 36.32 480.86 43.36"/><polygon class="cls-3" points="531.28 198.83 518.99 224.94 531.58 247.32 521.89 267.86 530.7 286.33 522.19 304.52 530.99 321.54 523.36 333.56 531.58 339.14 522.48 316.55 526.88 245.27 523.1 192.96 531.28 198.83"/><path class="cls-4" d="M553.54,176.57l20.28,42.59s-5.87,12-7,12,9.09,18.18,10.26,18.48,6.46,24.93,6.46,24.93L565,281.35,572.35,306l-6.16,20.53,8.21,16.72,3.23-23.46-11.73-17,10-37.84-2-28.45Z"/><polygon class="cls-5" points="534.51 176.57 546.54 215.05 538.91 231.77 550.35 254.36 541.84 271.38 547.42 292.5 540.67 306.28 547.12 322.12 535.68 320.07 548.88 303.94 537.74 285.16 551.82 286.33 540.67 263.16 548 241.16 543.6 202.73 545.68 180.64 534.51 176.57"/><rect class="cls-1" x="121.12" y="640.2" width="48.7" height="26.69" transform="translate(290.93 1307.09) rotate(-180)"/><rect class="cls-2" x="115.25" y="634.33" width="48.7" height="26.69" transform="translate(279.19 1295.35) rotate(-180)"/><polygon class="cls-3" points="184.19 672.76 175.38 670.12 166 679.5 152.21 672.76 132.85 679.5 121.12 671.88 101.76 679.5 88.56 679.5 84.16 661.02 61.57 640.2 47.19 617.02 64.21 606.17 56.29 583.58 65.97 563.05 57.17 544.57 65.67 526.38 56.87 509.36 64.5 497.34 56.29 491.76 65.38 514.35 60.98 585.63 54.53 622.89 70.37 652.22 93.54 665.72 106.16 681.85 149.57 676.57 178.32 677.74 184.19 672.76"/><path class="cls-4" d="M177.73,668.36l4.4-9.1-7.33-17.6-6.16-16.42-27,3.22-12-10-15.25,13.2-25.23,1.17L78,618.49,67.73,633.74l-22.3,3.82L30.77,625.24l-13.2-13.5s5.86-12,7-12-9.1-18.18-10.27-18.48S7.89,556.3,7.89,556.3l18.48-6.75L19,524.91l6.16-20.53L17,487.66l-3.23,23.46,11.74,17L15.51,566l2.06,28.45L29.3,615.55l2.05,20.25,28.46,3.52.88-15.55,29.63,4.11L107,635.8,135.78,622l18.78,7.63,22.88,8.21Z"/><polygon class="cls-5" points="103.22 639.02 97.5 660.45 75.94 670.7 43.97 666.89 53.35 642.54 41.33 615.85 48.95 599.13 37.51 576.54 46.02 559.53 40.45 538.4 47.19 524.62 40.74 508.78 52.18 510.83 38.98 526.97 50.13 545.74 36.05 544.57 47.19 567.74 39.86 589.74 44.26 628.17 47.19 642.54 55.99 655.45 56.29 670.7 74.47 674.52 87.67 653.54 109.97 646.06 103.22 639.02"/><polygon class="cls-3" points="52.8 483.55 65.09 457.44 52.5 435.06 62.18 414.53 53.38 396.05 61.89 377.86 53.09 360.84 60.72 348.82 52.5 343.24 61.59 365.83 57.2 437.11 60.98 489.42 52.8 483.55"/><path class="cls-4" d="M30.54,505.81,10.26,463.22s5.87-12,7-12S8.21,433,7,432.71.58,407.78.58,407.78L19.06,401l-7.33-24.64,6.16-20.53L9.67,339.14,6.45,362.6l11.73,17-10,37.84,2,28.45Z"/><polygon class="cls-5" points="49.57 505.81 37.54 467.33 45.17 450.61 33.73 428.02 42.23 411.01 36.66 389.88 43.41 376.1 36.95 360.26 48.4 362.31 35.2 378.44 46.34 397.22 32.26 396.05 43.41 419.22 36.08 441.22 40.48 479.65 38.39 501.74 49.57 505.81"/></g></g></svg>