<svg xmlns="http://www.w3.org/2000/svg" viewBox="0 0 115.88 298.95"><defs><style>.cls-1{fill:#575756;stroke:#575756;}.cls-1,.cls-2,.cls-3{stroke-miterlimit:10;}.cls-2{fill:#9d9d9c;stroke:#9d9d9c;}.cls-3{fill:#ededed;stroke:#ededed;}</style></defs><g id="Слой_2" data-name="Слой 2"><g id="Слой_1-2" data-name="Слой 1"><polygon class="cls-1" points="93.45 258.54 115.31 212.11 92.93 172.3 110.14 135.78 94.49 102.91 109.62 70.56 93.97 40.3 107.54 18.91 92.93 8.99 109.1 49.17 101.28 175.95 108.01 268.98 93.45 258.54"/><path class="cls-2" d="M53.87,298.14,17.8,222.38S28.23,201,30.32,201s-16.17-32.34-18.26-32.87S.58,123.78.58,123.78l32.87-12L20.41,68l11-36.52L16.75,1.69,11,43.43,31.88,73.69,14.15,141,17.8,191.6Z"/><polygon class="cls-3" points="87.71 298.14 66.32 229.69 79.88 199.95 59.54 159.78 74.67 129.51 64.75 91.95 76.75 67.43 65.28 39.25 85.62 42.91 62.15 71.6 81.97 104.99 56.93 102.91 76.75 144.12 63.71 183.25 71.54 251.6 67.83 290.89 87.71 298.14"/></g></g></svg>