<svg xmlns="http://www.w3.org/2000/svg" viewBox="0 0 115.88 298.95"><defs><style>.cls-1{fill:#575756;stroke:#575756;}.cls-1,.cls-2,.cls-3{stroke-miterlimit:10;}.cls-2{fill:#9d9d9c;stroke:#9d9d9c;}.cls-3{fill:#ededed;stroke:#ededed;}</style></defs><g id="Слой_2" data-name="Слой 2"><g id="Слой_1-2" data-name="Слой 1"><polygon class="cls-1" points="22.43 40.41 0.56 86.84 22.95 126.65 5.73 163.18 21.38 196.05 6.25 228.39 21.9 258.65 8.34 280.05 22.95 289.96 6.77 249.78 14.6 123 7.87 29.98 22.43 40.41"/><path class="cls-2" d="M62,.82,98.08,76.57S87.64,98,85.56,98s16.17,32.35,18.26,32.87,11.48,44.35,11.48,44.35l-32.87,12,13,43.82-11,36.52,14.61,29.74,5.74-41.74L84,225.26,101.73,158l-3.65-50.61Z"/><polygon class="cls-3" points="28.16 0.82 49.56 69.26 35.99 99 56.34 139.18 41.21 169.44 51.12 207 39.12 231.52 50.6 259.7 30.25 256.05 53.73 227.35 33.9 193.96 58.95 196.05 39.12 154.83 52.16 115.7 44.34 47.35 48.04 8.06 28.16 0.82"/></g></g></svg>