<svg xmlns="http://www.w3.org/2000/svg" viewBox="0 0 315.17 347.61"><defs><style>.cls-1{fill:#c6c6c6;stroke:#c6c6c6;}.cls-1,.cls-2,.cls-3,.cls-4,.cls-5{stroke-miterlimit:10;}.cls-2{fill:#706f6f;stroke:#706f6f;}.cls-3{fill:#575756;stroke:#575756;}.cls-4{fill:#9d9d9c;stroke:#9d9d9c;}.cls-5{fill:#ededed;stroke:#ededed;}</style></defs><g id="Слой_2" data-name="Слой 2"><g id="Слой_1-2" data-name="Слой 1"><rect class="cls-1" x="26.59" y="27.14" width="86.61" height="47.48"/><rect class="cls-2" x="37.02" y="37.57" width="86.61" height="47.48"/><polygon class="cls-3" points="1.02 16.7 16.68 21.4 33.37 4.7 57.89 16.7 92.33 4.7 113.2 18.27 147.63 4.7 171.11 4.7 178.94 37.57 219.11 74.62 244.68 115.83 214.42 135.14 228.5 175.31 211.28 211.84 226.94 244.7 211.81 277.05 227.46 307.31 213.89 328.7 228.5 338.62 212.33 298.44 220.16 171.66 231.63 105.4 203.46 53.23 162.24 29.23 139.81 0.53 62.59 9.92 11.46 7.83 1.02 16.7"/><path class="cls-4" d="M12.5,24.53,4.68,40.7,17.72,72l11,29.22,48-5.74,21.39,17.74L125.2,89.75l44.87-2.09,19.82,25.57L208.15,86.1l39.66-6.79,26.08,21.92,23.48,24s-10.43,21.39-12.52,21.39S301,179,303.11,179.49s11.48,44.34,11.48,44.34l-32.87,12,13,43.83-10.95,36.52,14.61,29.74,5.73-41.74-20.86-30.26L301,206.62,297.37,156,276.5,118.44l-3.65-36-50.61-6.26-1.56,27.65L168,96.53,138.24,82.44,87.11,107,53.72,93.4,13,78.79Z"/><polygon class="cls-5" points="145.03 76.7 155.2 38.6 193.55 20.36 250.42 27.14 233.72 70.44 255.11 117.92 241.55 147.66 261.89 187.84 246.76 218.1 256.68 255.66 244.68 280.18 256.15 308.36 235.81 304.7 259.29 276.01 239.46 242.62 264.5 244.7 244.68 203.49 257.72 164.36 249.89 96.01 244.68 70.44 229.03 47.49 228.5 20.36 196.16 13.57 172.68 50.88 133.03 64.18 145.03 76.7"/></g></g></svg>