<svg xmlns="http://www.w3.org/2000/svg" viewBox="0 0 143.5 129.11"><defs><style>.cls-1{fill:#fff;stroke:#222220;stroke-width:3px;}.cls-1,.cls-2{stroke-miterlimit:10;}.cls-2{fill:#6aa842;stroke:#6aa842;stroke-width:6px;}</style></defs><g id="Слой_2" data-name="Слой 2"><g id="Слой_1-2" data-name="Слой 1"><path class="cls-1" d="M133.13,103.71a31.75,31.75,0,0,1-30.77,23.9h-70a31.76,31.76,0,0,1-30.77-23.9l10.5-20.62c1.25.54,17.9-1.32,30.72-6.26,7.62-2.93,11.82-1.33,11.93-9.59.08-5.47-.5-9.54-8.61-13.3-7.8-3.62-9.5-11.73-7.63-23.44,3.13-19.6,17.12-29,28.86-29s25.73,9.4,28.86,29c1.87,11.71.18,19.82-7.63,23.44-8.11,3.76-8.68,7.83-8.61,13.3.11,8.26,4.32,6.66,11.94,9.59,12.81,4.94,29.47,6.8,30.71,6.26Z"/><line class="cls-2" x1="123.97" y1="5.2" x2="123.97" y2="44.25"/><line class="cls-2" x1="104.44" y1="24.72" x2="143.5" y2="24.72"/></g></g></svg>