<svg xmlns="http://www.w3.org/2000/svg" viewBox="0 0 90.05 90.04"><defs><style>.cls-1{fill:#afafaf;stroke:#201600;stroke-miterlimit:10;}</style></defs><g id="Слой_2" data-name="Слой 2"><g id="Слой_1-2" data-name="Слой 1"><path class="cls-1" d="M89.49,47.35c0-.77.06-1.55.06-2.33s0-1.56-.06-2.33L79.61,40.8a34.73,34.73,0,0,0-1-5.11L87,30.16a42.94,42.94,0,0,0-1.79-4.31l-9.85,2a36.5,36.5,0,0,0-2.91-4.34l5.65-8.31a39.52,39.52,0,0,0-3.3-3.3l-8.32,5.64a35.14,35.14,0,0,0-4.33-2.9l2-9.85A42.94,42.94,0,0,0,59.89,3l-5.53,8.41a33.46,33.46,0,0,0-5.11-1L47.36.56C46.59.52,45.81.5,45,.5s-1.56,0-2.33.06l-1.9,9.89a34.73,34.73,0,0,0-5.11,1L30.16,3.05a40.66,40.66,0,0,0-4.31,1.78l2,9.86a34.22,34.22,0,0,0-4.32,2.89l-8.33-5.64a41,41,0,0,0-3.3,3.29l5.65,8.32a35.26,35.26,0,0,0-2.9,4.34l-9.86-2A42.94,42.94,0,0,0,3,30.16l8.41,5.53a34.73,34.73,0,0,0-1,5.11L.56,42.69C.52,43.46.5,44.24.5,45s0,1.56.06,2.33l9.88,1.89a34.73,34.73,0,0,0,1,5.11L3,59.88a42.94,42.94,0,0,0,1.79,4.31l9.86-2a35.26,35.26,0,0,0,2.9,4.34l-5.65,8.32a41,41,0,0,0,3.3,3.29l8.33-5.64a34.22,34.22,0,0,0,4.32,2.89l-2,9.86A40.66,40.66,0,0,0,30.16,87l5.53-8.41a34.73,34.73,0,0,0,5.11,1l1.9,9.89c.77,0,1.55.06,2.33.06s1.56,0,2.33-.06l1.89-9.89a33.46,33.46,0,0,0,5.11-1L59.89,87a42.94,42.94,0,0,0,4.31-1.79l-2-9.85a35.14,35.14,0,0,0,4.33-2.9l8.32,5.64a39.52,39.52,0,0,0,3.3-3.3l-5.65-8.31a36.5,36.5,0,0,0,2.91-4.34l9.85,2A42.94,42.94,0,0,0,87,59.88L78.6,54.35a34.73,34.73,0,0,0,1-5.11ZM45,73.18A28.16,28.16,0,1,1,73.18,45,28.15,28.15,0,0,1,45,73.18Z"/></g></g></svg>