<svg xmlns="http://www.w3.org/2000/svg" viewBox="0 0 134.5 191.09"><defs><style>.cls-1,.cls-3{fill:#1d1d1b;}.cls-1,.cls-2{stroke:#1d1d1b;stroke-miterlimit:10;}.cls-2{fill:#fff;}.cls-3{font-size:100px;font-family:Mathcad-UniMath, Mathcad UniMath;}</style></defs><g id="Слой_2" data-name="Слой 2"><g id="Слой_1-2" data-name="Слой 1"><path class="cls-1" d="M102.25,134h-70A31.74,31.74,0,0,1,.5,102.25v-70A32.43,32.43,0,0,1,9.8,9.8,31.62,31.62,0,0,1,32.25.5h70A31.74,31.74,0,0,1,134,32.25v70A31.74,31.74,0,0,1,102.25,134Z"/><path class="cls-2" d="M133,110.1A31.75,31.75,0,0,1,102.25,134h-70A31.76,31.76,0,0,1,1.48,110.1L12,89.48c1.25.54,17.9-1.32,30.72-6.26,7.62-2.93,11.82-1.33,11.93-9.59.08-5.47-.5-9.54-8.61-13.3-7.8-3.62-9.5-11.73-7.63-23.44,3.13-19.6,17.12-29,28.86-29s25.73,9.4,28.86,29c1.87,11.71.18,19.82-7.63,23.44-8.11,3.76-8.68,7.83-8.61,13.3.11,8.26,4.32,6.66,11.94,9.59,12.81,4.94,29.47,6.8,30.71,6.26Z"/><text class="cls-3" transform="translate(44.72 97.79)">?</text></g></g></svg>